<mxfile host="app.diagrams.net" agent="Mozilla/5.0 (Windows NT 10.0; Win64; x64) AppleWebKit/537.36 (KHTML, like Gecko) Chrome/132.0.0.0 Safari/537.36" version="28.0.6">
  <diagram name="Page-1" id="TejdQdLas1CJynzTsuTU">
    <mxGraphModel dx="872" dy="479" grid="0" gridSize="10" guides="1" tooltips="1" connect="1" arrows="1" fold="1" page="1" pageScale="1" pageWidth="850" pageHeight="1100" math="0" shadow="0">
      <root>
        <mxCell id="0" />
        <mxCell id="1" parent="0" />
        <mxCell id="0j1OsE48vd_kSZ_x8VVW-2" value="" style="rounded=0;whiteSpace=wrap;html=1;" parent="1" vertex="1">
          <mxGeometry x="42" y="37" width="428" height="413" as="geometry" />
        </mxCell>
        <mxCell id="0j1OsE48vd_kSZ_x8VVW-3" value="Pose Detection &amp;amp; Joint Angle Analysis" style="text;html=1;align=center;verticalAlign=middle;resizable=0;points=[];autosize=1;strokeColor=none;fillColor=none;" parent="1" vertex="1">
          <mxGeometry x="42" y="45" width="220" height="26" as="geometry" />
        </mxCell>
        <mxCell id="0j1OsE48vd_kSZ_x8VVW-4" style="edgeStyle=orthogonalEdgeStyle;rounded=0;orthogonalLoop=1;jettySize=auto;html=1;exitX=0.5;exitY=1;exitDx=0;exitDy=0;" parent="1" source="0j1OsE48vd_kSZ_x8VVW-5" target="0j1OsE48vd_kSZ_x8VVW-7" edge="1">
          <mxGeometry relative="1" as="geometry" />
        </mxCell>
        <mxCell id="0j1OsE48vd_kSZ_x8VVW-5" value="Extract Keypoints" style="rounded=0;whiteSpace=wrap;html=1;" parent="1" vertex="1">
          <mxGeometry x="120" y="95" width="117" height="36" as="geometry" />
        </mxCell>
        <mxCell id="0j1OsE48vd_kSZ_x8VVW-6" style="edgeStyle=orthogonalEdgeStyle;rounded=0;orthogonalLoop=1;jettySize=auto;html=1;exitX=0.5;exitY=1;exitDx=0;exitDy=0;" parent="1" source="0j1OsE48vd_kSZ_x8VVW-7" target="0j1OsE48vd_kSZ_x8VVW-8" edge="1">
          <mxGeometry relative="1" as="geometry" />
        </mxCell>
        <mxCell id="0j1OsE48vd_kSZ_x8VVW-7" value="Vision Transformer (ViT) - Input : Img" style="rounded=0;whiteSpace=wrap;html=1;" parent="1" vertex="1">
          <mxGeometry x="120" y="174" width="117" height="36" as="geometry" />
        </mxCell>
        <mxCell id="0j1OsE48vd_kSZ_x8VVW-36" style="edgeStyle=orthogonalEdgeStyle;rounded=0;orthogonalLoop=1;jettySize=auto;html=1;exitX=0.5;exitY=1;exitDx=0;exitDy=0;entryX=0.5;entryY=0;entryDx=0;entryDy=0;" parent="1" source="0j1OsE48vd_kSZ_x8VVW-8" target="0j1OsE48vd_kSZ_x8VVW-33" edge="1">
          <mxGeometry relative="1" as="geometry" />
        </mxCell>
        <mxCell id="0j1OsE48vd_kSZ_x8VVW-8" value="Output Yoga Pose Label" style="rounded=0;whiteSpace=wrap;html=1;" parent="1" vertex="1">
          <mxGeometry x="120" y="250" width="117" height="36" as="geometry" />
        </mxCell>
        <mxCell id="0j1OsE48vd_kSZ_x8VVW-9" value="" style="rounded=0;whiteSpace=wrap;html=1;" parent="1" vertex="1">
          <mxGeometry x="539" y="41" width="288" height="412" as="geometry" />
        </mxCell>
        <mxCell id="0j1OsE48vd_kSZ_x8VVW-10" value="Stepwise Yoga Pose Correction" style="text;html=1;align=center;verticalAlign=middle;resizable=0;points=[];autosize=1;strokeColor=none;fillColor=none;" parent="1" vertex="1">
          <mxGeometry x="539" y="57" width="186" height="26" as="geometry" />
        </mxCell>
        <mxCell id="0j1OsE48vd_kSZ_x8VVW-40" style="edgeStyle=orthogonalEdgeStyle;rounded=0;orthogonalLoop=1;jettySize=auto;html=1;exitX=0.5;exitY=1;exitDx=0;exitDy=0;entryX=0.5;entryY=0;entryDx=0;entryDy=0;" parent="1" source="0j1OsE48vd_kSZ_x8VVW-12" target="0j1OsE48vd_kSZ_x8VVW-14" edge="1">
          <mxGeometry relative="1" as="geometry" />
        </mxCell>
        <mxCell id="0j1OsE48vd_kSZ_x8VVW-12" value="Retrieve Ideal Pose Step List" style="rounded=0;whiteSpace=wrap;html=1;" parent="1" vertex="1">
          <mxGeometry x="608" y="107" width="143" height="36" as="geometry" />
        </mxCell>
        <mxCell id="0j1OsE48vd_kSZ_x8VVW-13" style="edgeStyle=orthogonalEdgeStyle;rounded=0;orthogonalLoop=1;jettySize=auto;html=1;exitX=0.5;exitY=1;exitDx=0;exitDy=0;" parent="1" source="0j1OsE48vd_kSZ_x8VVW-14" target="0j1OsE48vd_kSZ_x8VVW-16" edge="1">
          <mxGeometry relative="1" as="geometry" />
        </mxCell>
        <mxCell id="0j1OsE48vd_kSZ_x8VVW-14" value="Match user joint angles with current step" style="rounded=0;whiteSpace=wrap;html=1;" parent="1" vertex="1">
          <mxGeometry x="608" y="167" width="143" height="36" as="geometry" />
        </mxCell>
        <mxCell id="0j1OsE48vd_kSZ_x8VVW-41" style="edgeStyle=orthogonalEdgeStyle;rounded=0;orthogonalLoop=1;jettySize=auto;html=1;exitX=0.5;exitY=1;exitDx=0;exitDy=0;entryX=0.5;entryY=0;entryDx=0;entryDy=0;" parent="1" source="0j1OsE48vd_kSZ_x8VVW-16" target="0j1OsE48vd_kSZ_x8VVW-18" edge="1">
          <mxGeometry relative="1" as="geometry" />
        </mxCell>
        <mxCell id="0j1OsE48vd_kSZ_x8VVW-16" value="Identify incorrect joint(s)" style="rounded=0;whiteSpace=wrap;html=1;" parent="1" vertex="1">
          <mxGeometry x="608" y="229" width="143" height="36" as="geometry" />
        </mxCell>
        <mxCell id="0j1OsE48vd_kSZ_x8VVW-17" style="edgeStyle=orthogonalEdgeStyle;rounded=0;orthogonalLoop=1;jettySize=auto;html=1;exitX=0.5;exitY=1;exitDx=0;exitDy=0;entryX=0.5;entryY=0;entryDx=0;entryDy=0;" parent="1" source="0j1OsE48vd_kSZ_x8VVW-18" target="0j1OsE48vd_kSZ_x8VVW-20" edge="1">
          <mxGeometry relative="1" as="geometry" />
        </mxCell>
        <mxCell id="0j1OsE48vd_kSZ_x8VVW-18" value="Suggest correction visually + audio" style="rounded=0;whiteSpace=wrap;html=1;" parent="1" vertex="1">
          <mxGeometry x="608" y="288" width="143" height="36" as="geometry" />
        </mxCell>
        <mxCell id="0j1OsE48vd_kSZ_x8VVW-20" value="Advance step-by-step as user aligns" style="rounded=0;whiteSpace=wrap;html=1;" parent="1" vertex="1">
          <mxGeometry x="608" y="354" width="143" height="36" as="geometry" />
        </mxCell>
        <mxCell id="0j1OsE48vd_kSZ_x8VVW-22" style="edgeStyle=orthogonalEdgeStyle;rounded=0;orthogonalLoop=1;jettySize=auto;html=1;exitX=0.5;exitY=1;exitDx=0;exitDy=0;entryX=0.5;entryY=0;entryDx=0;entryDy=0;" parent="1" edge="1">
          <mxGeometry relative="1" as="geometry">
            <mxPoint x="712.4999999999998" y="357" as="sourcePoint" />
          </mxGeometry>
        </mxCell>
        <mxCell id="0j1OsE48vd_kSZ_x8VVW-26" value="" style="edgeStyle=orthogonalEdgeStyle;rounded=0;orthogonalLoop=1;jettySize=auto;html=1;" parent="1" edge="1">
          <mxGeometry relative="1" as="geometry">
            <mxPoint x="712.4285714285718" y="242.0000000000001" as="sourcePoint" />
          </mxGeometry>
        </mxCell>
        <mxCell id="0j1OsE48vd_kSZ_x8VVW-30" value="" style="edgeStyle=orthogonalEdgeStyle;rounded=0;orthogonalLoop=1;jettySize=auto;html=1;" parent="1" edge="1">
          <mxGeometry relative="1" as="geometry">
            <mxPoint x="712.4285714285718" y="120.00000000000011" as="sourcePoint" />
          </mxGeometry>
        </mxCell>
        <mxCell id="0j1OsE48vd_kSZ_x8VVW-32" style="edgeStyle=orthogonalEdgeStyle;rounded=0;orthogonalLoop=1;jettySize=auto;html=1;exitX=0.5;exitY=1;exitDx=0;exitDy=0;" parent="1" source="0j1OsE48vd_kSZ_x8VVW-33" target="0j1OsE48vd_kSZ_x8VVW-34" edge="1">
          <mxGeometry relative="1" as="geometry" />
        </mxCell>
        <mxCell id="0j1OsE48vd_kSZ_x8VVW-33" value="Calculate Joint Angles" style="rounded=0;whiteSpace=wrap;html=1;" parent="1" vertex="1">
          <mxGeometry x="120" y="319" width="117" height="36" as="geometry" />
        </mxCell>
        <mxCell id="0j1OsE48vd_kSZ_x8VVW-34" value="Send to: Pose Correction + Recommendation" style="rounded=0;whiteSpace=wrap;html=1;" parent="1" vertex="1">
          <mxGeometry x="109" y="385" width="139" height="47" as="geometry" />
        </mxCell>
        <mxCell id="IoMnqmLhPpfd_thOvn8t-1" value="" style="rounded=0;whiteSpace=wrap;html=1;" vertex="1" parent="1">
          <mxGeometry x="267" y="129" width="189" height="250" as="geometry" />
        </mxCell>
        <mxCell id="IoMnqmLhPpfd_thOvn8t-2" value="Metrics" style="text;html=1;align=center;verticalAlign=middle;resizable=0;points=[];autosize=1;strokeColor=none;fillColor=none;" vertex="1" parent="1">
          <mxGeometry x="272" y="135" width="57" height="26" as="geometry" />
        </mxCell>
        <mxCell id="IoMnqmLhPpfd_thOvn8t-3" value="Precision" style="rounded=0;whiteSpace=wrap;html=1;" vertex="1" parent="1">
          <mxGeometry x="324.5" y="170" width="74" height="33" as="geometry" />
        </mxCell>
        <mxCell id="IoMnqmLhPpfd_thOvn8t-4" value="Recall" style="rounded=0;whiteSpace=wrap;html=1;" vertex="1" parent="1">
          <mxGeometry x="324.5" y="218" width="74" height="33" as="geometry" />
        </mxCell>
        <mxCell id="IoMnqmLhPpfd_thOvn8t-5" value="F1 Score" style="rounded=0;whiteSpace=wrap;html=1;" vertex="1" parent="1">
          <mxGeometry x="324.5" y="267" width="74" height="33" as="geometry" />
        </mxCell>
        <mxCell id="IoMnqmLhPpfd_thOvn8t-6" value="Accuracy" style="rounded=0;whiteSpace=wrap;html=1;" vertex="1" parent="1">
          <mxGeometry x="324.5" y="316" width="74" height="33" as="geometry" />
        </mxCell>
        <mxCell id="IoMnqmLhPpfd_thOvn8t-10" value="" style="endArrow=none;html=1;rounded=0;entryX=0.5;entryY=1;entryDx=0;entryDy=0;exitX=0.5;exitY=0;exitDx=0;exitDy=0;" edge="1" parent="1" source="IoMnqmLhPpfd_thOvn8t-4" target="IoMnqmLhPpfd_thOvn8t-3">
          <mxGeometry width="50" height="50" relative="1" as="geometry">
            <mxPoint x="402" y="299" as="sourcePoint" />
            <mxPoint x="452" y="249" as="targetPoint" />
          </mxGeometry>
        </mxCell>
        <mxCell id="IoMnqmLhPpfd_thOvn8t-11" value="" style="endArrow=none;html=1;rounded=0;entryX=0.5;entryY=1;entryDx=0;entryDy=0;exitX=0.5;exitY=0;exitDx=0;exitDy=0;" edge="1" parent="1" source="IoMnqmLhPpfd_thOvn8t-6" target="IoMnqmLhPpfd_thOvn8t-5">
          <mxGeometry width="50" height="50" relative="1" as="geometry">
            <mxPoint x="416" y="389" as="sourcePoint" />
            <mxPoint x="466" y="339" as="targetPoint" />
          </mxGeometry>
        </mxCell>
        <mxCell id="IoMnqmLhPpfd_thOvn8t-12" value="" style="endArrow=none;html=1;rounded=0;entryX=0.5;entryY=1;entryDx=0;entryDy=0;exitX=0.5;exitY=0;exitDx=0;exitDy=0;" edge="1" parent="1" source="IoMnqmLhPpfd_thOvn8t-5" target="IoMnqmLhPpfd_thOvn8t-4">
          <mxGeometry width="50" height="50" relative="1" as="geometry">
            <mxPoint x="416" y="389" as="sourcePoint" />
            <mxPoint x="466" y="339" as="targetPoint" />
          </mxGeometry>
        </mxCell>
        <mxCell id="IoMnqmLhPpfd_thOvn8t-14" value="" style="endArrow=none;dashed=1;html=1;rounded=0;entryX=1;entryY=0.5;entryDx=0;entryDy=0;exitX=0;exitY=0.25;exitDx=0;exitDy=0;" edge="1" parent="1" source="IoMnqmLhPpfd_thOvn8t-1" target="0j1OsE48vd_kSZ_x8VVW-7">
          <mxGeometry width="50" height="50" relative="1" as="geometry">
            <mxPoint x="400" y="293" as="sourcePoint" />
            <mxPoint x="450" y="243" as="targetPoint" />
          </mxGeometry>
        </mxCell>
      </root>
    </mxGraphModel>
  </diagram>
</mxfile>
